<svg xmlns="http://www.w3.org/2000/svg" version="1.1" xmlns:xlink="http://www.w3.org/1999/xlink" xmlns:svgjs="http://svgjs.com/svgjs" width="1444" height="578" preserveAspectRatio="none" viewBox="0 0 1444 578"><g mask="url(&quot;#SvgjsMask1016&quot;)" fill="none"><rect width="1444" height="578" x="0" y="0" fill="#0e2a47"></rect><path d="M0,591.328C109.449,602.801,211.816,531.295,295.55,459.885C372.642,394.14,420.738,302.739,451.569,206.225C479.851,117.692,465.187,26.251,463.761,-66.679C462.103,-174.679,516.098,-304.37,442.518,-383.444C368.414,-463.081,230.873,-400.192,126.121,-429.528C23.347,-458.31,-59.095,-579.928,-162.327,-552.835C-265.049,-525.876,-288.947,-390.351,-351.147,-304.271C-406.904,-227.107,-498.513,-167.802,-508.92,-73.172C-519.269,20.932,-449.134,101.206,-404.948,184.933C-363.367,263.723,-321.124,338.723,-258.241,401.831C-181.32,479.027,-108.383,579.966,0,591.328" fill="#0d2741"></path><path d="M1444 932.0319999999999C1510.297 940.187 1572.522 901.534 1628.653 865.325 1684.71 829.164 1735.434 784.38 1765.3319999999999 724.7470000000001 1795.8899999999999 663.797 1818.7069999999999 592.106 1798.243 527.068 1778.426 464.086 1707.3220000000001 436.91200000000003 1660.211 390.652 1617.722 348.93100000000004 1589.406 292.42 1534.886 268.472 1476.752 242.93599999999998 1411.727 245.19400000000002 1348.829 253.877 1277.492 263.725 1202.249 274.055 1148.366 321.832 1091.54 372.21799999999996 1057.0810000000001 445.653 1047.561 521.001 1038.122 595.703 1049.228 677.891 1095.914 736.966 1140.026 792.784 1224.341 788.4449999999999 1286.404 823.225 1343.243 855.078 1379.331 924.077 1444 932.0319999999999" fill="#0f2d4d"></path></g><defs><mask id="SvgjsMask1016"><rect width="1444" height="578" fill="#ffffff"></rect></mask></defs></svg>