<svg xmlns="http://www.w3.org/2000/svg" version="1.1" xmlns:xlink="http://www.w3.org/1999/xlink" xmlns:svgjs="http://svgjs.com/svgjs" width="1437" height="560" preserveAspectRatio="none" viewBox="0 0 1437 560"><g mask="url(&quot;#SvgjsMask1135&quot;)" fill="none"><rect width="1437" height="560" x="0" y="0" fill="#0e2a47"></rect><path d="M0,535.628C98.759,519.504,134.839,394.6,215.787,335.771C290.016,281.825,396.699,279.463,452.603,206.697C513.613,127.284,536.969,23.474,532.58,-76.573C527.929,-182.615,511.481,-305.605,427.296,-370.254C343.097,-434.914,217.94,-365.433,116.341,-396.222C13.293,-427.45,-54.699,-565.266,-161.07,-548.555C-264.988,-532.23,-312.807,-408.719,-369.231,-319.94C-418.696,-242.111,-456.277,-158.738,-467.033,-67.149C-477.592,22.756,-464.672,112.749,-429.86,196.311C-394.189,281.935,-339.185,357.021,-266.378,414.493C-188.232,476.179,-98.258,551.67,0,535.628" fill="#0c233b"></path><path d="M1437 1021.1610000000001C1520.382 1004.303 1561.535 910.634 1636.517 870.454 1721.3029999999999 825.02 1840.121 846.149 1901.622 772.186 1965.179 695.751 1973.545 583.251 1956.808 485.26300000000003 1940.274 388.464 1873.732 311.503 1810.15 236.664 1746 161.156 1681.464 79.07100000000003 1586.818 49.766999999999996 1491.638 20.297000000000025 1390.859 49.197 1295.249 77.24200000000002 1199.616 105.293 1082.7269999999999 124.16399999999999 1034.968 211.637 986.7909999999999 299.875 1067.274 405.616 1061.172 505.964 1055.808 594.169 979.8389999999999 673.174 1001.697 758.796 1024.406 847.751 1099.263 915.7860000000001 1177.893 963.178 1255.262 1009.81 1348.4569999999999 1039.063 1437 1021.1610000000001" fill="#103153"></path></g><defs><mask id="SvgjsMask1135"><rect width="1437" height="560" fill="#ffffff"></rect></mask></defs></svg>